<svg xmlns="http://www.w3.org/2000/svg" width="512" height="512" viewBox="0 0 512 512" version="1.1"><path d="M 339.250 66.689 C 340.212 66.941, 341.788 66.941, 342.750 66.689 C 343.712 66.438, 342.925 66.232, 341 66.232 C 339.075 66.232, 338.288 66.438, 339.250 66.689 M 347.762 66.707 C 349.006 66.946, 350.806 66.937, 351.762 66.687 C 352.718 66.437, 351.700 66.241, 349.500 66.252 C 347.300 66.263, 346.518 66.468, 347.762 66.707 M 194.055 72.211 C 198.211 74.616, 204.286 78.643, 207.555 81.161 C 214.294 86.348, 233.208 105.649, 235.913 110.098 L 237.701 113.037 241.860 107.768 L 246.019 102.500 238.043 94.752 C 224.274 81.375, 206.228 71.510, 190 68.489 C 187.081 67.946, 187.754 68.564, 194.055 72.211 M 91 98.500 C 88.571 100.975, 86.809 103, 87.084 103 C 87.359 103, 89.571 100.975, 92 98.500 C 94.429 96.025, 96.191 94, 95.916 94 C 95.641 94, 93.429 96.025, 91 98.500 M 263.946 104.750 L 260.500 108.500 264.250 105.054 C 266.313 103.158, 268 101.471, 268 101.304 C 268 100.540, 267.154 101.260, 263.946 104.750 M 15.343 278.500 C 15.346 282.900, 15.522 284.576, 15.733 282.224 C 15.945 279.872, 15.942 276.272, 15.727 274.224 C 15.512 272.176, 15.339 274.100, 15.343 278.500 M 15.300 294 C 15.300 297.025, 15.487 298.262, 15.716 296.750 C 15.945 295.238, 15.945 292.762, 15.716 291.250 C 15.487 289.738, 15.300 290.975, 15.300 294 M 418.300 315 C 418.300 318.025, 418.487 319.262, 418.716 317.750 C 418.945 316.238, 418.945 313.762, 418.716 312.250 C 418.487 310.738, 418.300 311.975, 418.300 315 M 433.310 315.500 C 433.315 318.800, 433.502 320.029, 433.725 318.232 C 433.947 316.435, 433.943 313.735, 433.715 312.232 C 433.486 310.729, 433.304 312.200, 433.310 315.500 M 271.232 315 C 271.232 316.925, 271.438 317.712, 271.689 316.750 C 271.941 315.788, 271.941 314.212, 271.689 313.250 C 271.438 312.288, 271.232 313.075, 271.232 315 M 396.453 367.250 L 392.500 371.500 396.750 367.547 C 400.702 363.871, 401.460 363, 400.703 363 C 400.540 363, 398.627 364.913, 396.453 367.250 M 341.728 388.722 C 343.503 388.943, 346.653 388.946, 348.728 388.730 C 350.802 388.513, 349.350 388.333, 345.500 388.328 C 341.650 388.324, 339.952 388.501, 341.728 388.722 M 216 399.313 C 216 399.485, 217.463 400.948, 219.250 402.563 L 222.500 405.500 219.563 402.250 C 216.825 399.221, 216 398.540, 216 399.313 M 348.250 403.689 C 349.212 403.941, 350.788 403.941, 351.750 403.689 C 352.712 403.438, 351.925 403.232, 350 403.232 C 348.075 403.232, 347.288 403.438, 348.250 403.689 M 228.500 413 C 230.648 415.200, 232.631 417, 232.906 417 C 233.181 417, 231.648 415.200, 229.500 413 C 227.352 410.800, 225.369 409, 225.094 409 C 224.819 409, 226.352 410.800, 228.500 413 M 227.500 425.582 C 223.100 428.632, 214.626 433.573, 208.668 436.563 C 202.711 439.553, 198.501 442, 199.313 442 C 203.967 442, 227.049 433.247, 236.580 427.868 L 242.111 424.747 239.881 422.373 C 238.655 421.068, 237.167 420.009, 236.576 420.019 C 235.984 420.030, 231.900 422.533, 227.500 425.582 M 162.250 445.735 C 164.863 445.941, 169.137 445.941, 171.750 445.735 C 174.363 445.529, 172.225 445.360, 167 445.360 C 161.775 445.360, 159.637 445.529, 162.250 445.735" stroke="none" fill="#db7e56" fill-rule="evenodd"/><path d="M 373.862 73.872 C 388.144 82.533, 398.482 91.793, 411.962 108 C 438.900 140.387, 457.700 178.444, 468.468 222.389 C 476.171 253.823, 478.817 277.264, 477.092 298.780 C 472.078 361.312, 441.787 408.296, 388.500 436.194 C 382.450 439.361, 378.022 441.964, 378.660 441.976 C 381.251 442.029, 399.051 435.629, 407.669 431.547 C 418.095 426.608, 433.911 416.101, 444.976 406.761 C 480.202 377.028, 500.440 323.548, 495.971 272 C 493.444 242.852, 483.471 203.657, 471.545 176 C 454.149 135.655, 424.507 97.568, 398.083 81.608 C 390.149 76.815, 375.946 70.905, 369 69.506 C 366.150 68.932, 367.053 69.743, 373.862 73.872 M 193.300 285 C 193.300 288.025, 193.487 289.262, 193.716 287.750 C 193.945 286.238, 193.945 283.762, 193.716 282.250 C 193.487 280.738, 193.300 281.975, 193.300 285 M 237.500 400 C 240.766 403.300, 243.662 406, 243.937 406 C 244.212 406, 241.766 403.300, 238.500 400 C 235.234 396.700, 232.338 394, 232.063 394 C 231.788 394, 234.234 396.700, 237.500 400" stroke="none" fill="#e8d0ba" fill-rule="evenodd"/><path d="M 331 67.601 C 317.797 70.018, 303.418 74.937, 294.469 80.098 C 275.847 90.837, 250.971 117.718, 235.099 144.251 C 229.492 153.624, 227.401 155.433, 222.925 154.776 C 220.174 154.372, 219.911 154.730, 215.093 165.429 C 207.615 182.033, 207.704 181.704, 210.018 184.018 C 212.692 186.692, 212.538 191.079, 209.457 200.075 C 205.719 210.988, 200.466 231.795, 197.455 247.616 C 192.517 273.563, 192.940 303.716, 198.573 327.201 C 206.023 358.265, 219.514 382.010, 241.642 403 C 275.570 435.185, 319.529 450.328, 362.500 444.634 C 373.230 443.212, 375.599 442.510, 384.887 437.996 C 439.664 411.373, 471.976 362.588, 477.092 298.780 C 480.510 256.158, 464.529 192.140, 439.374 147.684 C 419.266 112.149, 394.489 85.066, 369.629 71.447 L 362.758 67.683 348.129 67.414 C 340.083 67.265, 332.375 67.350, 331 67.601 M 332.539 227.044 C 307.248 231.019, 285.150 244.958, 271.401 265.610 C 248.304 300.303, 251.798 345.265, 279.921 375.235 C 291.986 388.091, 303.976 395.567, 320.703 400.660 C 328.597 403.064, 331.091 403.342, 345 403.365 C 359.128 403.389, 361.297 403.147, 369.500 400.630 C 407.131 389.082, 431.900 357.577, 433.678 319 C 435.633 276.583, 407.880 239.587, 366.079 228.891 C 357.165 226.611, 340.971 225.718, 332.539 227.044" stroke="none" fill="#f9e8d4" fill-rule="evenodd"/><path d="M 394.046 266.358 C 399.658 278.333, 401.367 286.276, 401.392 300.500 C 401.430 322.274, 394.645 339.492, 379.679 355.600 C 364.562 371.869, 344.063 380.955, 322.303 381.030 C 312.656 381.064, 312.738 381.531, 323 385 C 327.698 386.588, 332.827 387.336, 341.500 387.695 C 356.859 388.331, 365.267 386.641, 378 380.358 C 385.999 376.411, 388.930 374.235, 396.554 366.585 C 404.197 358.916, 406.329 356.019, 410.235 348 C 416.497 335.143, 418.415 325.844, 417.740 311.603 C 417.112 298.348, 414.240 288.386, 408.034 277.941 C 404.080 271.285, 392.698 258, 390.950 258 C 390.499 258, 391.892 261.761, 394.046 266.358" stroke="none" fill="#efad0a" fill-rule="evenodd"/><path d="M 332.763 242.964 C 285.328 251.640, 258.750 302.443, 279.001 345.729 C 285.316 359.227, 293.255 368.446, 305.453 376.442 L 312.406 381 321.756 381 C 343.988 381, 364.392 372.052, 379.679 355.600 C 394.645 339.492, 401.430 322.274, 401.392 300.500 C 401.367 286.187, 399.688 278.476, 393.872 265.958 C 389.513 256.576, 387.976 255.057, 377.450 249.732 C 365.241 243.555, 345.707 240.597, 332.763 242.964" stroke="none" fill="#fcc927" fill-rule="evenodd"/><path d="M 160 50.661 C 138.645 52.148, 118.209 59.098, 100.567 70.873 C 91.301 77.056, 73.731 94.025, 63.746 106.432 C 33.294 144.272, 14.466 187.948, 3.365 246.500 C 0.741 260.342, 0.523 263.314, 0.540 285 C 0.561 310.756, 1.519 318.479, 7.119 337.996 C 15.271 366.409, 28.285 389.110, 47.970 409.252 C 56.162 417.635, 57.956 419.003, 60.750 419.002 C 65.096 418.999, 68 415.986, 68 411.479 C 68 408.417, 66.942 406.884, 59.896 399.729 C 37.890 377.384, 24.043 350.257, 17.790 317.242 C 15.919 307.363, 15.575 302.168, 15.618 284.500 C 15.666 265.065, 15.910 262.270, 18.884 247 C 27.948 200.469, 41.518 165.518, 62.888 133.667 C 87.574 96.873, 111.686 77.051, 141.825 68.772 C 153.191 65.650, 180.012 65.625, 191.688 68.726 C 209.902 73.563, 224.517 81.736, 237.554 94.375 L 245.936 102.500 236.701 114.655 C 225.104 129.920, 217.016 143.448, 217.007 147.595 C 216.998 151.504, 220.013 154.332, 224.066 154.217 C 228.160 154.101, 228.805 153.456, 235.008 143.262 C 248.823 120.562, 268.421 97.879, 284.447 86.039 C 298.753 75.471, 316.735 68.720, 335.582 66.842 C 365.898 63.822, 393.932 73.897, 417.719 96.360 C 449.530 126.400, 474.128 170.466, 487.015 220.500 C 494.630 250.061, 496.382 262.051, 496.444 285 C 496.501 306.340, 495.823 312.453, 491.449 330.027 C 481.777 368.892, 459.187 400.203, 424.880 422.293 C 413.329 429.732, 404.341 434.160, 392.424 438.285 C 375.217 444.242, 366.947 445.500, 345 445.500 C 323.284 445.500, 316.199 444.436, 298.340 438.495 C 260.592 425.938, 225.263 394.804, 209.282 360.012 C 197.667 334.725, 193.529 314.964, 193.572 285 C 193.595 269.094, 194.028 263.104, 195.921 252.500 C 198.899 235.817, 203.948 215.216, 208.544 201 C 212.607 188.431, 212.510 185.832, 207.883 183.439 C 202.967 180.897, 199.567 182.870, 196.989 189.758 C 190.858 206.145, 184.901 229.681, 180.857 253.500 C 177.984 270.418, 177.735 298.146, 180.310 314.407 C 186.716 354.857, 201.985 385.143, 230.116 413.198 L 241.846 424.896 236.571 427.873 C 216.335 439.293, 192.380 445.371, 167.500 445.396 C 145.483 445.418, 131.186 442.578, 109.645 433.901 C 103.772 431.536, 99.011 430.179, 97.861 430.544 C 94.808 431.513, 92 435.133, 92 438.100 C 92 442.078, 96.326 445.194, 108.407 449.917 C 153.652 467.607, 204.087 463.938, 246.403 439.879 L 255.462 434.728 258.481 436.524 C 269.363 442.995, 283.264 449.487, 293.547 452.901 C 308.457 457.851, 317.717 459.751, 333.009 461.001 C 368.859 463.930, 404.693 454.246, 436.096 433.143 C 466.274 412.863, 487.061 386.879, 500.431 352.725 C 504.367 342.671, 508.725 325.160, 510.022 314.184 C 510.651 308.858, 511.579 303.719, 512.083 302.764 C 513.355 300.356, 513.273 265.031, 512 267 C 511.288 268.101, 511.027 267.393, 511.015 264.337 C 510.997 259.334, 506.040 232.974, 502.440 218.738 C 492.113 177.894, 473.521 138.657, 451.205 110.610 C 424.786 77.406, 401.745 61.126, 370.880 53.852 C 357.495 50.698, 333.654 50.653, 319.749 53.757 C 298.528 58.494, 281.612 67.475, 263.245 83.757 L 255.990 90.188 248.248 82.958 C 227.015 63.129, 201.314 52.201, 172.500 50.751 C 168.100 50.529, 162.475 50.489, 160 50.661 M 328.113 228.545 C 299.084 234.842, 277.280 251.999, 265.060 278.156 C 258.733 291.700, 257.589 297.321, 257.557 315 C 257.526 331.983, 258.570 337.565, 264.171 350.368 C 276.938 379.551, 304.455 399.679, 335.896 402.832 C 369.084 406.161, 399.865 391.722, 418.677 364 C 423.194 357.344, 426.426 350.527, 429.584 341 C 432.203 333.096, 432.404 331.344, 432.450 316 C 432.493 301.738, 432.193 298.442, 430.240 291.702 C 420.617 258.500, 393.477 234.057, 359.566 228.051 C 351.478 226.618, 335.863 226.863, 328.113 228.545 M 337.981 242.112 C 320.625 243.524, 306.736 250.184, 293.460 263.460 C 280.422 276.498, 274.351 288.884, 272.040 307.165 C 270.271 321.151, 273.751 338.665, 280.748 351 C 290.387 367.991, 307.939 381.497, 327 386.592 C 336.919 389.243, 354.322 389.041, 364.455 386.157 C 406.195 374.279, 428.801 330.392, 414.028 289.913 C 404.459 263.695, 380.046 244.687, 352.699 242.164 C 348.739 241.799, 342.117 241.775, 337.981 242.112 M 0.415 285 C 0.415 295.175, 0.564 299.337, 0.745 294.250 C 0.927 289.162, 0.927 280.837, 0.745 275.750 C 0.564 270.662, 0.415 274.825, 0.415 285" stroke="none" fill="#000000" fill-rule="evenodd"/><path d="M 151.500 67.448 C 123.609 71.808, 101.766 85.472, 78.902 112.860 C 46.371 151.831, 25.399 202.350, 16.993 262 C 15.382 273.428, 15.631 298.920, 17.477 311.500 C 22.641 346.693, 35.947 374.035, 60.540 399.985 C 69.436 409.373, 69.640 409.812, 67.899 415.896 C 67.442 417.493, 74.129 422.928, 84.751 429.593 L 92.002 434.143 94.636 432.072 C 98.293 429.195, 100.318 429.429, 111.235 433.991 C 123.236 439.005, 136.229 442.507, 148.625 444.067 C 160.692 445.586, 186.244 444.757, 194.239 442.588 C 201.855 440.522, 215.478 433.599, 226.699 426.093 L 235.805 420.003 227.260 411.252 C 213.137 396.788, 202.434 381.267, 194.194 363.301 C 173.024 317.148, 172.816 262.496, 193.563 197.861 C 197.785 184.707, 199.964 181.660, 204.750 182.219 C 207.009 182.483, 208 182.184, 208 181.238 C 208 180.490, 210.629 174.129, 213.841 167.102 C 219.614 154.476, 219.661 154.299, 217.841 152.052 C 216.829 150.802, 216 148.793, 216 147.588 C 216 145.017, 224.824 129.771, 232.107 119.757 C 236.444 113.795, 237.055 112.416, 236.196 110.530 C 234.536 106.888, 213.359 85.455, 206.173 80.144 C 195.308 72.114, 187.277 68.175, 179.465 67.046 C 170.508 65.752, 161.528 65.881, 151.500 67.448 M 414 93.313 C 414 93.485, 415.462 94.948, 417.250 96.563 L 420.500 99.500 417.563 96.250 C 414.825 93.221, 414 92.540, 414 93.313 M 270.946 97.750 L 267.500 101.500 271.250 98.054 C 274.740 94.846, 275.460 94, 274.696 94 C 274.529 94, 272.842 95.688, 270.946 97.750 M 193.232 293 C 193.232 294.925, 193.438 295.712, 193.689 294.750 C 193.941 293.788, 193.941 292.212, 193.689 291.250 C 193.438 290.288, 193.232 291.075, 193.232 293" stroke="none" fill="#e59770" fill-rule="evenodd"/></svg>