<svg xmlns="http://www.w3.org/2000/svg" width="100" height="100" viewBox="0 0 512 512" version="1.1"><path d="M 214.500 1.893 C 203.798 5.017, 196.048 9.698, 187.854 17.989 C 175.968 30.015, 170.759 42.689, 170.585 60 L 170.500 68.500 179.966 68.298 C 193.089 68.018, 197.557 66.784, 212.723 59.251 L 225.946 52.683 239.723 51.923 C 248.582 51.434, 254.847 50.590, 257.272 49.559 C 262.148 47.485, 268.432 41.786, 269.990 38.024 C 271.213 35.072, 271.222 35.070, 280.857 34.785 L 290.500 34.500 290.789 25.750 L 291.078 17 281.565 17 C 272.094 17, 272.045 16.987, 270.562 14.120 C 267.834 8.845, 263.634 4.739, 258.541 2.367 C 253.871 0.192, 252.287 0.024, 237 0.081 C 224.377 0.128, 219.090 0.554, 214.500 1.893 M 225.148 18.028 C 208.850 20.398, 195.841 30.862, 190.552 45.853 C 189.056 50.092, 189.061 50.116, 191.273 49.505 C 192.498 49.167, 198.900 46.197, 205.500 42.905 C 219.642 35.851, 226.256 34.084, 238.685 34.036 C 249.746 33.993, 252.665 33.028, 254.430 28.828 C 256.319 24.335, 254.720 20.199, 250.397 18.392 C 246.792 16.886, 234.244 16.705, 225.148 18.028 M 281 60.031 C 281 67.746, 280.745 69.147, 279.250 69.639 C 264.982 74.339, 254.280 86.319, 252.058 100.080 C 251.543 103.272, 251.569 108.994, 252.121 114 C 254.018 131.190, 262.014 189.338, 262.967 192.878 C 265.655 202.861, 274.313 210.885, 284.727 213.047 C 297.406 215.679, 310.717 208.698, 316.044 196.622 C 318.756 190.473, 329.357 110.456, 328.503 102.575 C 327.053 89.192, 317.890 76.784, 305.455 71.367 L 299 68.555 299 59.777 L 299 51 290 51 L 281 51 281 60.031 M 194.500 87.366 C 177.135 95.516, 173.689 117.488, 187.783 130.194 C 198.788 140.113, 221.935 139.303, 231.751 128.654 C 244.159 115.194, 240.154 95.148, 223.500 87.358 C 216.275 83.979, 201.709 83.983, 194.500 87.366 M 281.020 88.250 C 276.490 90.564, 271.699 95.806, 270.543 99.714 C 269.900 101.887, 270.081 101.934, 280.194 102.214 L 290.500 102.500 290.500 111 L 290.500 119.500 280.750 119.786 C 275.387 119.944, 271 120.429, 271 120.865 C 271 125.196, 280.134 188.200, 281.055 190.221 C 282.307 192.969, 287.349 196.003, 290.651 195.996 C 294.010 195.989, 298.754 192.282, 299.824 188.827 C 300.391 186.997, 301.583 179.650, 302.474 172.500 C 303.364 165.350, 304.333 158.262, 304.626 156.750 L 305.159 154 297.579 154 L 290 154 290 145.039 L 290 136.078 298.739 135.789 L 307.478 135.500 309.361 120.809 C 310.397 112.728, 310.960 104.598, 310.611 102.742 C 308.176 89.760, 292.801 82.231, 281.020 88.250 M 199.635 105.073 C 196.096 107.856, 196.014 113.104, 199.455 116.545 C 201.587 118.678, 202.816 119, 208.820 119 C 217.629 119, 221 116.814, 221 111.102 C 221 105.091, 217.986 103, 209.320 103 C 203.702 103, 201.735 103.421, 199.635 105.073 M 97 107.431 C 90.022 109.373, 84.663 112.495, 79.573 117.585 C 65.133 132.024, 64.244 154.257, 77.459 170.385 C 80.235 173.772, 81 175.592, 81 178.804 C 81 194.934, 90.533 210.126, 105.286 217.506 C 109.126 219.428, 112.796 221, 113.439 221 C 114.116 221, 115.133 224.114, 115.849 228.374 C 118.747 245.618, 132.483 256.656, 150 255.815 C 159.886 255.341, 165.051 252.686, 175.748 242.579 L 184.131 234.658 198.067 248.567 L 212.003 262.477 218.240 256.240 L 224.477 250.003 210.555 236.055 L 196.633 222.106 204.269 214.114 C 214.140 203.783, 217.190 197.879, 217.762 188 C 218.300 178.705, 215.834 171.365, 209.914 164.640 C 205.149 159.226, 195.824 154.419, 188.245 153.470 C 183.622 152.890, 182.914 152.492, 182.352 150.156 C 180.236 141.353, 169.805 128.492, 161.236 124.121 C 156.235 121.569, 145.995 119.035, 140.603 119.015 C 137.678 119.004, 135.683 118.164, 132.603 115.648 C 122.153 107.110, 109.035 104.082, 97 107.431 M 358.183 120.846 C 352.143 122.995, 346.817 127.644, 343.686 133.500 C 340.831 138.837, 340.669 150.846, 343.382 156 C 345.943 160.866, 350.770 165.780, 355.500 168.338 C 358.939 170.197, 361.112 170.500, 371 170.500 C 383.954 170.500, 387.612 169.322, 393.769 163.164 C 398.797 158.136, 400.956 152.680, 400.956 145 C 400.956 134.535, 396.136 126.716, 386.634 121.771 C 380.704 118.684, 365.634 118.194, 358.183 120.846 M 98.500 126.001 C 96.300 127.077, 93.713 128.417, 92.750 128.979 C 91.787 129.540, 90.253 130.361, 89.341 130.802 C 86.569 132.141, 84 138.136, 84 143.267 C 84 150.036, 86.057 154.191, 92.974 161.394 L 99 167.670 99.022 176.085 C 99.054 188.358, 102.381 194.950, 111.500 200.810 C 114.802 202.931, 117.013 203.455, 124.171 203.808 L 132.842 204.237 133.171 216.549 C 133.455 227.195, 133.785 229.243, 135.605 231.681 C 138.724 235.860, 143.333 238.167, 148.561 238.167 C 153.964 238.167, 157.760 235.847, 165.976 227.525 L 171.453 221.979 157.217 207.717 L 142.981 193.456 148.770 187.728 C 151.953 184.578, 154.989 182, 155.516 182 C 156.043 182, 162.692 188.188, 170.291 195.750 L 184.108 209.500 191.091 202.217 C 194.932 198.212, 198.508 193.795, 199.037 192.402 C 200.743 187.917, 200.174 181.550, 197.750 177.999 C 193.860 172.301, 190.052 171, 177.266 171 L 166 171 165.978 163.750 C 165.944 152.432, 161.446 144.412, 152.500 139.718 C 149.438 138.111, 146.155 137.524, 138.500 137.215 L 128.500 136.811 123.500 131.951 C 115.280 123.960, 106.799 121.941, 98.500 126.001 M 361.455 139.455 C 359.907 141.002, 359 143.052, 359 145 C 359 146.948, 359.907 148.998, 361.455 150.545 C 363.617 152.708, 364.787 153, 371.280 153 C 377.832 153, 378.910 152.725, 380.979 150.523 C 384.167 147.129, 383.961 142.223, 380.504 139.250 C 378.331 137.381, 376.706 137, 370.899 137 C 364.811 137, 363.592 137.317, 361.455 139.455 M 420 163.896 C 399.606 169.467, 383.089 185.795, 377.401 206.008 C 375.003 214.533, 374.344 239.233, 376.334 246.076 C 378.182 252.435, 383.376 259.001, 388.467 261.417 L 392 263.094 392 272.547 L 392 282 401 282 L 410 282 410.032 272.750 L 410.063 263.500 414.379 260.884 C 419.357 257.866, 423.652 252.635, 425.573 247.252 C 426.320 245.161, 426.932 239.278, 426.956 233.960 C 427.011 222.013, 428.863 214.809, 434.422 204.924 C 441.290 192.712, 443.214 186.193, 443.769 173.250 L 444.252 162 435.376 162.060 C 430.168 162.095, 423.814 162.854, 420 163.896 M 416.270 184.501 C 405.193 190.043, 397.588 199.414, 394.359 211.500 C 393.584 214.402, 393.019 221.793, 393.012 229.114 C 393 241.416, 393.065 241.792, 395.636 244.364 C 398.957 247.684, 403.268 247.823, 406.382 244.709 C 408.430 242.661, 408.739 241.145, 409.283 230.459 C 410.019 216.015, 411.963 209.201, 419.499 194.636 C 424.813 184.364, 425.957 181, 424.134 181 C 423.658 181, 420.119 182.576, 416.270 184.501 M 297.344 235.031 C 291.353 236.231, 285.493 239.490, 281.002 244.117 C 277.099 248.139, 273 256.990, 273 261.395 C 273 263.498, 272.430 263.775, 266.907 264.352 C 255.194 265.576, 247.131 271.048, 242.047 281.222 C 234.611 296.102, 240.520 313.789, 255.306 320.915 C 258.713 322.556, 264.087 324.199, 267.250 324.565 L 273 325.230 273 342.115 L 273 359 303 359 L 333 359 333 342.115 L 333 325.230 338.750 324.540 C 356.395 322.423, 367.805 309.343, 366.761 292.433 C 365.816 277.147, 354.915 266.006, 339.309 264.374 L 333.228 263.739 332.712 259.886 C 330.574 243.947, 313.328 231.827, 297.344 235.031 M 297.500 253.842 C 292.057 257.169, 291.536 258.498, 291 270.398 L 290.500 281.500 277.500 282 C 261.717 282.607, 259.309 283.782, 256.651 292.175 C 255.743 295.041, 257.850 300.482, 261.058 303.557 L 264.129 306.500 301.271 306.786 C 327.862 306.990, 339.212 306.741, 341.227 305.906 C 348.238 303.002, 351.133 294.420, 347.294 287.920 C 344.456 283.116, 340.649 282, 327.099 282 L 315 282 315 271.135 C 315 261.631, 314.738 259.937, 312.912 257.615 C 308.600 252.134, 302.669 250.681, 297.500 253.842 M 167.500 274.402 C 152.025 279.309, 140.698 291.491, 137.477 306.692 C 132.849 328.535, 138.553 340.472, 154.221 341.730 C 172.003 343.157, 188.649 335.829, 197.566 322.649 C 202.725 315.025, 205 306.633, 205 295.233 C 205 286.800, 204.701 285.165, 202.457 281.336 C 198.555 274.678, 194.324 272.985, 181.790 273.067 C 176.130 273.104, 169.700 273.705, 167.500 274.402 M 73 291.538 C 65.265 295.013, 60.455 302.124, 59.379 311.676 C 58.599 318.592, 57.289 321.391, 50.970 329.635 C 38.688 345.660, 39.743 367.585, 53.457 381.299 C 62.419 390.261, 73.053 393.662, 89.275 392.753 C 101.513 392.068, 108.354 389.418, 115.884 382.447 C 124.074 374.864, 127.343 367.482, 127.814 355.500 C 128.228 344.974, 126.078 337.737, 120.451 330.718 C 114.268 323.005, 112.210 318.722, 111.072 311.205 C 109.746 302.442, 106.655 297.084, 100.742 293.300 C 96.976 290.890, 95.378 290.550, 86.500 290.275 C 79.023 290.044, 75.617 290.362, 73 291.538 M 171.542 291.729 C 168.954 292.387, 165.160 294.768, 161.658 297.932 C 156.950 302.187, 154.718 307.673, 154.206 316.250 L 153.743 324 159.190 324 C 175.989 324, 187 313.628, 187 297.804 L 187 291 180.250 291.116 C 176.537 291.180, 172.619 291.456, 171.542 291.729 M 423.650 299.029 C 411.858 301.056, 411.081 301.718, 355.470 357.143 L 303.439 409 271.339 409 L 239.239 409 238.832 399.715 C 238.477 391.580, 237.983 389.506, 234.842 382.965 C 226.879 366.379, 212.286 357.958, 191.614 358.022 C 176.842 358.068, 170.126 364.760, 170.061 379.500 C 170.025 387.615, 172.392 398.218, 175.468 403.721 C 176.860 406.213, 178 408.420, 178 408.626 C 178 408.832, 162.925 409, 144.500 409 L 111 409 111 460.500 L 111 512 256 512 L 401 512 401 467.299 L 401 422.597 431.843 391.549 C 456.623 366.602, 463.212 359.407, 465.368 354.938 C 473.619 337.832, 468.990 317.719, 454.202 306.428 C 446.060 300.211, 433.905 297.268, 423.650 299.029 M 78.173 309.750 C 77.680 310.712, 77.006 313.897, 76.676 316.827 C 75.907 323.656, 72.130 331.873, 66.875 338.150 C 60.581 345.667, 58.786 352.282, 60.973 359.905 C 62.581 365.514, 66.218 369.892, 71.446 372.517 C 75.638 374.621, 77.773 374.997, 85.446 374.978 C 95.956 374.953, 100.989 373.178, 105.390 367.949 C 109.172 363.453, 110.170 360.531, 110.186 353.894 C 110.202 347.458, 108.713 344.074, 102.516 336.466 C 97.670 330.517, 94 321.776, 94 316.185 C 94 309.922, 91.882 308, 84.978 308 C 80.360 308, 78.874 308.382, 78.173 309.750 M 422 318.078 C 418.617 319.607, 406.454 331.142, 373 364.550 L 328.500 408.987 359.038 408.993 L 389.576 409 418.731 379.736 C 439.886 358.501, 448.445 349.240, 449.921 345.986 C 458.055 328.054, 439.955 309.962, 422 318.078 M 291 333 L 291 341 303 341 L 315 341 315 333 L 315 325 303 325 L 291 325 291 333 M 418 340.961 L 418 350 427.039 350 L 436.078 350 435.789 341.250 L 435.500 332.500 426.750 332.211 L 418 331.922 418 340.961 M 384 375.500 L 384 384 392.500 384 L 401 384 401 375.500 L 401 367 392.500 367 L 384 367 384 375.500 M 188.203 383.250 C 188.734 391.532, 190.895 396.828, 195.703 401.636 C 200.763 406.697, 204.663 408.288, 213.250 408.797 L 221 409.257 220.994 402.878 C 220.987 394.243, 219.685 390.161, 215.310 385.049 C 210.138 379.007, 203.306 376.022, 194.618 376.010 L 187.737 376 188.203 383.250 M 128 461 L 128 495 256 495 L 384 495 384 461 L 384 427 256 427 L 128 427 128 461" stroke="none" fill="#fff" fill-rule="evenodd"/></svg>